<svg width="31" height="31" viewBox="0 0 31 31" fill="none" xmlns="http://www.w3.org/2000/svg">
<path d="M16.7087 27.0783V27.3614L16.9896 27.3264C22.8682 26.5933 27.417 21.579 27.417 15.5019C27.417 8.92052 22.0818 3.58525 15.5003 3.58525C8.91893 3.58525 3.58366 8.92052 3.58366 15.5019C3.58366 21.579 8.13245 26.5933 14.0111 27.3264L14.292 27.3614V27.0783V18.4186V18.1686H14.042H11.1253C10.458 18.1686 9.91699 17.6276 9.91699 16.9602C9.91699 16.2929 10.458 15.7519 11.1253 15.7519H14.042H14.292V15.5019V12.5852C14.292 10.3071 16.1388 8.46025 18.417 8.46025H19.1462C19.8135 8.46025 20.3545 9.00124 20.3545 9.66858C20.3545 10.3359 19.8135 10.8769 19.1462 10.8769H18.417C17.4735 10.8769 16.7087 11.6418 16.7087 12.5852V15.5019V15.7519L16.9587 15.7519H19.8753C20.5427 15.7519 21.0837 16.2929 21.0837 16.9602C21.0837 17.6276 20.5427 18.1686 19.8753 18.1686H16.9587H16.7087V18.4186V27.0783ZM29.8337 15.5019C29.8337 23.4179 23.4163 29.8353 15.5003 29.8353C7.58424 29.8353 1.16699 23.4179 1.16699 15.5019C1.16699 7.58583 7.58424 1.16858 15.5003 1.16858C23.4163 1.16858 29.8337 7.58583 29.8337 15.5019Z" fill="#333333" stroke="#F7F7F7" stroke-width="0.5"/>
</svg>
