<svg width="50" height="50" viewBox="0 0 50 50" fill="none" xmlns="http://www.w3.org/2000/svg">
<circle cx="25" cy="25" r="24.5" stroke="#EAEAEA"/>
<path d="M31.6541 30.5951L34.5836 33.5231C34.7202 33.6646 34.7958 33.854 34.7941 34.0507C34.7924 34.2473 34.7135 34.4354 34.5745 34.5745C34.4354 34.7135 34.2473 34.7924 34.0507 34.7941C33.854 34.7958 33.6646 34.7202 33.5231 34.5836L30.5936 31.6541C28.6793 33.2943 26.204 34.1292 23.6873 33.9838C21.1707 33.8383 18.8081 32.7237 17.0955 30.8739C15.3829 29.024 14.4533 26.5828 14.5018 24.0624C14.5503 21.5419 15.5732 19.1383 17.3557 17.3557C19.1383 15.5732 21.5419 14.5503 24.0624 14.5018C26.5828 14.4533 29.024 15.3829 30.8739 17.0955C32.7237 18.8081 33.8383 21.1707 33.9838 23.6873C34.1292 26.204 33.2943 28.6793 31.6541 30.5936V30.5951ZM24.2501 32.5001C26.4382 32.5001 28.5366 31.6309 30.0838 30.0838C31.6309 28.5366 32.5001 26.4382 32.5001 24.2501C32.5001 22.0621 31.6309 19.9637 30.0838 18.4165C28.5366 16.8693 26.4382 16.0001 24.2501 16.0001C22.0621 16.0001 19.9637 16.8693 18.4165 18.4165C16.8693 19.9637 16.0001 22.0621 16.0001 24.2501C16.0001 26.4382 16.8693 28.5366 18.4165 30.0838C19.9637 31.6309 22.0621 32.5001 24.2501 32.5001Z" fill="#333333"/>
</svg>
