<svg width="35" height="35" viewBox="0 0 35 35" fill="none" xmlns="http://www.w3.org/2000/svg">
<path d="M16.5849 13.7088L16.5849 13.7088C16.5202 13.6142 16.4546 13.5171 16.388 13.4188L16.363 13.3818L16.3618 13.38L15.8875 12.6921C15.3909 11.9953 14.8258 11.3025 14.1236 10.7903C13.8983 10.6259 13.6112 10.6059 13.372 10.7085C12.0963 11.2552 11.0255 12.6349 11.0769 14.032C11.0781 14.0639 11.0796 14.0978 11.0816 14.1337L11.101 14.3818L11.1363 14.674L11.1924 15.0124C11.439 16.3158 12.1821 18.4282 14.3787 20.6249C16.5755 22.8216 18.6878 23.5647 19.9912 23.8113L20.3322 23.8678C20.3826 23.8749 20.4314 23.8813 20.4785 23.887L20.7507 23.9139L20.9742 23.9268C22.3687 23.9768 23.7464 22.9121 24.2921 21.6387C24.2921 21.6387 24.2921 21.6387 24.2921 21.6387L16.5849 13.7088ZM16.5849 13.7088C16.7855 14.0021 16.7639 14.3909 16.5408 14.6582L16.4506 14.7489L15.119 15.7379L15.1189 15.7379M16.5849 13.7088L15.1189 15.7379M15.1189 15.7379C14.8911 15.9073 14.8075 16.2225 14.9511 16.484L14.9511 16.4841M15.1189 15.7379L14.9511 16.4841M14.9511 16.4841C15.2628 17.0512 15.8188 17.8981 16.4621 18.5414C17.1058 19.1851 17.991 19.7758 18.5936 20.1203C18.8212 20.2506 19.0944 20.2071 19.2745 20.0427L19.2862 20.0321M14.9511 16.4841L19.2862 20.0321M19.2862 20.0321L19.2964 20.0201M19.2862 20.0321L19.2964 20.0201M19.2964 20.0201L19.3523 19.9544L19.3624 19.9426M19.2964 20.0201L19.3624 19.9426M19.3624 19.9426L19.3709 19.9296M19.3624 19.9426L19.3709 19.9296M19.3709 19.9296L20.2425 18.6021M19.3709 19.9296L20.2425 18.6021M20.2425 18.6021C20.498 18.2684 20.9704 18.196 21.3148 18.4341C21.3149 18.4342 21.315 18.4342 21.3151 18.4343L22.1038 18.9841C22.1042 18.9844 22.1045 18.9846 22.1049 18.9849L20.2425 18.6021ZM10.0888 29.7726L9.99585 29.7186L9.89269 29.7489L5.47108 31.0494C4.58962 31.3087 3.7658 30.5434 3.91998 29.6707L3.95466 29.5248L5.25328 25.1096L5.28435 25.0039L5.22736 24.9096C3.91954 22.7471 3.16699 20.2107 3.16699 17.5019C3.16699 9.58581 9.58424 3.16856 17.5003 3.16856C25.4163 3.16856 31.8337 9.58581 31.8337 17.5019C31.8337 25.4179 25.4163 31.8352 17.5003 31.8352C14.9729 31.8352 12.5955 31.1801 10.532 30.03L10.0888 29.7726ZM5.58366 17.5019C5.58366 19.8504 6.26175 22.0368 7.43238 23.8802C7.6884 24.2835 7.79732 24.7776 7.71272 25.2668L7.66024 25.4905L7.01813 27.6737L6.88881 28.1134L7.3285 27.9841L9.51834 27.3401C10.0764 27.1759 10.6591 27.2759 11.122 27.5698C12.9655 28.7405 15.1518 29.4186 17.5003 29.4186C24.0818 29.4186 29.417 24.0833 29.417 17.5019C29.417 10.9205 24.0818 5.58523 17.5003 5.58523C10.9189 5.58523 5.58366 10.9205 5.58366 17.5019Z" fill="#333333" stroke="#F7F7F7" stroke-width="0.5"/>
</svg>
